<svg width="70" height="41" viewBox="0 0 70 41" fill="none" xmlns="http://www.w3.org/2000/svg">
<path d="M67.3972 23.1891H56.8268L49.6106 31.2829V2.67455C49.6375 1.19907 48.4568 0 47.004 0C46.0054 0 45.0758 0.587855 44.6388 1.49884L32.838 25.998C32.815 26.0447 30.5764 30.6444 27.8413 32.8498C25.3094 34.8918 23.2337 35.6529 20.1862 35.6529C11.958 35.6529 5.26313 28.8536 5.26313 20.4971C5.26313 12.1406 11.958 5.34131 20.1881 5.34131C22.6644 5.34131 25.1197 5.97199 27.2893 7.16716C27.9486 7.52922 28.7019 7.59735 29.4091 7.35598C30.0704 7.13018 30.6224 6.63965 30.929 6.00313C31.5539 4.71063 31.0632 3.15924 29.8174 2.47016C27.0114 0.92266 23.8259 0.0681289 20.6002 0.0369843H19.9581C8.95269 0.126525 0 9.32199 0 20.4971C0 31.6722 9.05618 41 20.1881 41C24.4603 41 27.6266 39.8515 31.1169 37.0388C34.8045 34.0645 37.4571 28.5791 37.5683 28.3475L44.4088 14.2156V38.2495C44.4088 39.6861 45.5588 40.854 46.9733 40.854C47.6518 40.854 48.3169 40.5737 48.7942 40.0832L59.1383 28.476H67.3301C68.7427 28.476 69.9482 27.3625 70 25.9299C70.0537 24.4291 68.8653 23.1911 67.3991 23.1911L67.3972 23.1891ZM11.4137 23.1346C9.97618 23.1346 8.81085 21.9511 8.81085 20.4912C8.81085 14.1183 13.9149 8.93462 20.19 8.93462C21.6275 8.93462 22.7928 10.1181 22.7928 11.578C22.7928 13.0379 21.6275 14.2214 20.19 14.2214C16.7841 14.2214 14.0146 17.0342 14.0146 20.4932C14.0146 21.9531 12.8492 23.1366 11.4118 23.1366L11.4137 23.1346ZM20.2456 17.9043C21.6831 17.9043 22.8484 19.0878 22.8484 20.5477C22.8484 22.0076 21.6831 23.1911 20.2456 23.1911C18.8081 23.1911 17.6428 22.0076 17.6428 20.5477C17.6428 19.0878 18.8081 17.9043 20.2456 17.9043Z" fill="url(#paint0_linear_364_8)"/>
<defs>
<linearGradient id="paint0_linear_364_8" x1="0" y1="20.499" x2="70" y2="20.499" gradientUnits="userSpaceOnUse">
<stop stop-color="#6666FF"/>
<stop offset="1" stop-color="#A63AE6"/>
</linearGradient>
</defs>
</svg>
